<svg xmlns="http://www.w3.org/2000/svg" xmlns:xlink="http://www.w3.org/1999/xlink" width="737pt" height="442pt" viewBox="0.00 0.00 737.07 441.60">
<g id="graph0" class="graph" transform="scale(1 1) rotate(0) translate(4 437.6)">
<title>CalculatorArchitecture</title>
<g id="clust1" class="cluster">
<title>cluster_view</title>
<polygon fill="#e6e6fa" stroke="black" points="8,-158.8 8,-274.8 340,-274.8 340,-158.8 8,-158.8"/>
<text text-anchor="middle" x="174" y="-258.2" font-family="Times,serif" font-size="14.00">View Layer (view.py)</text>
</g>
<g id="clust2" class="cluster">
<title>cluster_controller</title>
<polygon fill="#ffe4e1" stroke="black" points="212,-8 212,-107.2 406,-107.2 406,-8 212,-8"/>
<text text-anchor="middle" x="309" y="-90.6" font-family="Times,serif" font-size="14.00">Controller Layer (controller.py)</text>
</g>
<g id="clust3" class="cluster">
<title>cluster_model</title>
<polygon fill="#f0fff0" stroke="black" points="388,-167.2 388,-425.6 542,-425.6 542,-167.2 388,-167.2"/>
<text text-anchor="middle" x="465" y="-409" font-family="Times,serif" font-size="14.00">Model Layer (model.py)</text>
</g>
<!-- User -->
<g id="node1" class="node">
<title>User</title>
<ellipse fill="#ffd700" stroke="black" cx="83" cy="-355.2" rx="31.43" ry="31.43"/>
<text text-anchor="middle" x="83" y="-351" font-family="Arial" font-size="14.00">User</text>
</g>
<!-- Buttons -->
<g id="node3" class="node">
<title>Buttons</title>
<polygon fill="#add8e6" stroke="black" points="149.93,-242 16.07,-242 16.07,-166.8 149.93,-166.8 149.93,-242"/>
<text text-anchor="middle" x="83" y="-225.4" font-family="Arial" font-size="14.00">Buttons</text>
<text text-anchor="middle" x="83" y="-208.6" font-family="Arial" font-size="14.00">- Numeric (0-9)</text>
<text text-anchor="middle" x="83" y="-191.8" font-family="Arial" font-size="14.00">- Operators (+ - * /)</text>
<text text-anchor="middle" x="83" y="-175" font-family="Arial" font-size="14.00">- Special (= C)</text>
</g>
<!-- User&#45;&gt;Buttons -->
<g id="edge1" class="edge">
<title>User-&gt;Buttons</title>
<path fill="none" stroke="black" d="M83,-323.37C83,-303.2 83,-276.43 83,-253.49"/>
<polygon fill="black" stroke="black" points="86.5,-253.75 83,-243.75 79.5,-253.75 86.5,-253.75"/>
<text text-anchor="middle" x="100.89" y="-287" font-family="Times,serif" font-size="14.00">Clicks</text>
</g>
<!-- Display -->
<g id="node2" class="node">
<title>Display</title>
<polygon fill="#add8e6" stroke="black" points="331.97,-233.6 186.03,-233.6 186.03,-175.2 331.97,-175.2 331.97,-233.6"/>
<text text-anchor="middle" x="259" y="-217" font-family="Arial" font-size="14.00">Display</text>
<text text-anchor="middle" x="259" y="-200.2" font-family="Arial" font-size="14.00">- Shows input/results</text>
<text text-anchor="middle" x="259" y="-183.4" font-family="Arial" font-size="14.00">- Error messages</text>
</g>
<!-- Router -->
<g id="node4" class="node">
<title>Router</title>
<polygon fill="#ffa07a" stroke="black" points="373.03,-74.4 244.97,-74.4 244.97,-16 373.03,-16 373.03,-74.4"/>
<text text-anchor="middle" x="309" y="-57.8" font-family="Arial" font-size="14.00">Input Router</text>
<text text-anchor="middle" x="309" y="-41" font-family="Arial" font-size="14.00">- handle_input()</text>
<text text-anchor="middle" x="309" y="-24.2" font-family="Arial" font-size="14.00">- update_display()</text>
</g>
<!-- Buttons&#45;&gt;Router -->
<g id="edge2" class="edge">
<title>Buttons-&gt;Router</title>
<path fill="none" stroke="black" d="M109.81,-166.73C123.74,-149.51 141.87,-129.64 161.23,-115.2 183.27,-98.75 209.85,-84.86 234.37,-73.94"/>
<polygon fill="black" stroke="black" points="235.56,-77.24 243.34,-70.05 232.77,-70.82 235.56,-77.24"/>
<text text-anchor="middle" x="193.11" y="-127.8" font-family="Times,serif" font-size="14.00">button_text</text>
</g>
<!-- Router&#45;&gt;Display -->
<g id="edge5" class="edge">
<title>Router-&gt;Display</title>
<path fill="none" stroke="black" d="M268.7,-74.87C256.44,-85.93 244.48,-99.68 237.92,-115.2 231.34,-130.75 233.97,-148.75 239.26,-164.42"/>
<polygon fill="black" stroke="black" points="235.86,-165.34 242.71,-173.43 242.4,-162.84 235.86,-165.34"/>
<text text-anchor="middle" x="284.96" y="-127.8" font-family="Times,serif" font-size="14.00">update_display()</text>
</g>
<!-- Logic -->
<g id="node6" class="node">
<title>Logic</title>
<polygon fill="#98fb98" stroke="black" points="510.08,-233.6 399.92,-233.6 399.92,-175.2 510.08,-175.2 510.08,-233.6"/>
<text text-anchor="middle" x="455" y="-217" font-family="Arial" font-size="14.00">Business Logic</text>
<text text-anchor="middle" x="455" y="-200.2" font-family="Arial" font-size="14.00">- calculate()</text>
<text text-anchor="middle" x="455" y="-183.4" font-family="Arial" font-size="14.00">- reset()</text>
</g>
<!-- Router&#45;&gt;Logic -->
<g id="edge3" class="edge">
<title>Router-&gt;Logic</title>
<path fill="none" stroke="black" d="M322.51,-74.56C333.91,-96.52 351.77,-126.8 373.13,-148.8 379.88,-155.75 387.65,-162.29 395.66,-168.28"/>
<polygon fill="black" stroke="black" points="393.36,-170.94 403.53,-173.9 397.43,-165.24 393.36,-170.94"/>
<text text-anchor="middle" x="399.57" y="-136.2" font-family="Times,serif" font-size="14.00">delegates</text>
<text text-anchor="middle" x="399.57" y="-119.4" font-family="Times,serif" font-size="14.00">operation</text>
</g>
<!-- State -->
<g id="node5" class="node">
<title>State</title>
<polygon fill="#98fb98" stroke="black" points="512.8,-392.8 397.2,-392.8 397.2,-317.6 512.8,-317.6 512.8,-392.8"/>
<text text-anchor="middle" x="455" y="-376.2" font-family="Arial" font-size="14.00">Calculator State</text>
<text text-anchor="middle" x="455" y="-359.4" font-family="Arial" font-size="14.00">- current_input</text>
<text text-anchor="middle" x="455" y="-342.6" font-family="Arial" font-size="14.00">- stored_value</text>
<text text-anchor="middle" x="455" y="-325.8" font-family="Arial" font-size="14.00">- operation</text>
</g>
<!-- State&#45;&gt;Logic -->
<g id="edge8" class="edge">
<title>State-&gt;Logic</title>
<path fill="none" stroke="black" d="M455,-306.09C455,-286.43 455,-263.95 455,-245.23"/>
<polygon fill="black" stroke="black" points="451.5,-305.9 455,-315.9 458.5,-305.9 451.5,-305.9"/>
<polygon fill="black" stroke="black" points="458.5,-245.35 455,-235.35 451.5,-245.35 458.5,-245.35"/>
<text text-anchor="middle" x="488.82" y="-287" font-family="Times,serif" font-size="14.00">reads/writes</text>
</g>
<!-- Logic&#45;&gt;Router -->
<g id="edge4" class="edge">
<title>Logic-&gt;Router</title>
<path fill="none" stroke="black" d="M451.06,-164.09C447.79,-147.64 441.84,-129.15 431,-115.2 416.14,-96.09 394.4,-81.41 373.37,-70.6"/>
<polygon fill="black" stroke="black" points="447.54,-164.3 452.66,-173.58 454.45,-163.13 447.54,-164.3"/>
<text text-anchor="middle" x="478.28" y="-127.8" font-family="Times,serif" font-size="14.00">result/error</text>
</g>
<!-- Config -->
<g id="node7" class="node">
<title>Config</title>
<polygon fill="#d3d3d3" stroke="black" points="688.8,-384.4 685.8,-388.4 664.8,-388.4 661.8,-384.4 587.2,-384.4 587.2,-326 688.8,-326 688.8,-384.4"/>
<text text-anchor="middle" x="638" y="-367.8" font-family="Arial" font-size="14.00">Configuration</text>
<text text-anchor="middle" x="638" y="-351" font-family="Arial" font-size="14.00">styles.py</text>
<text text-anchor="middle" x="638" y="-334.2" font-family="Arial" font-size="14.00">exceptions.py</text>
</g>
<!-- View -->
<g id="node8" class="node">
<title>View</title>
<polygon fill="lightgrey" stroke="black" points="639,-222.4 585,-222.4 585,-186.4 639,-186.4 639,-222.4"/>
<text text-anchor="middle" x="612" y="-200.2" font-family="Arial" font-size="14.00">View</text>
</g>
<!-- Config&#45;&gt;View -->
<g id="edge6" class="edge">
<title>Config-&gt;View</title>
<path fill="none" stroke="black" d="M630.74,-325.69C628.75,-317.32 626.71,-308.12 625.11,-299.6 621.02,-277.77 617.61,-252.87 615.29,-234.15"/>
<polygon fill="black" stroke="black" points="618.78,-233.85 614.11,-224.34 611.83,-234.69 618.78,-233.85"/>
<text text-anchor="middle" x="641.06" y="-287" font-family="Times,serif" font-size="14.00">styles</text>
</g>
<!-- Model -->
<g id="node9" class="node">
<title>Model</title>
<polygon fill="lightgrey" stroke="black" points="729.07,-222.4 674.93,-222.4 674.93,-186.4 729.07,-186.4 729.07,-222.4"/>
<text text-anchor="middle" x="702" y="-200.2" font-family="Arial" font-size="14.00">Model</text>
</g>
<!-- Config&#45;&gt;Model -->
<g id="edge7" class="edge">
<title>Config-&gt;Model</title>
<path fill="none" stroke="black" d="M650.65,-325.61C654.33,-317.24 658.34,-308.06 662,-299.6 671.62,-277.34 682.35,-252.05 690.27,-233.28"/>
<polygon fill="black" stroke="black" points="693.44,-234.76 694.1,-224.18 686.99,-232.04 693.44,-234.76"/>
<text text-anchor="middle" x="698.55" y="-287" font-family="Times,serif" font-size="14.00">exceptions</text>
</g>
</g>
</svg>